<svg width="743" height="1024" viewBox="0 0 743 1024" fill="none" xmlns="http://www.w3.org/2000/svg">
    <path fill-rule="evenodd" clip-rule="evenodd" d="M661.22 697.076C669.644 704.543 670.419 717.424 662.952 725.847C575.244 824.792 350.162 827.982 203.304 581.538C197.542 571.868 200.71 559.358 210.379 553.596C220.049 547.834 232.559 551.001 238.321 560.671C376.219 792.081 569.235 770.12 632.449 698.808C639.916 690.384 652.797 689.609 661.22 697.076Z" fill="url(#paint0_linear_2089-29291)"/>
    <path d="M647.701 712.327C797.662 543.155 526.209 287.84 457.949 384.081" stroke="url(#paint1_linear_2089-29291)" stroke-width="40.7625" stroke-linecap="round"/>
    <path opacity="0.3" d="M650.5 470.645C683.994 521.751 702.861 584.583 685.83 644.235" stroke="url(#paint2_linear_2089-29291)" stroke-width="40.7625" stroke-linecap="round"/>
    <path d="M827.005 473.218C706.618 664.567 385.48 475.509 458.745 383.02" stroke="url(#paint3_linear_2089-29291)" stroke-width="40.7625" stroke-linecap="round"/>
    <path d="M827.005 473.218C887.584 376.93 841.093 172.729 571.846 102.987" stroke="url(#paint4_linear_2089-29291)" stroke-width="40.7625" stroke-linecap="round"/>
    <defs>
        <linearGradient id="paint0_linear_2089-29291" x1="243.052" y1="599.144" x2="482.583" y2="535.538" gradientUnits="userSpaceOnUse">
            <stop offset="0.0598372" stop-color="#F3F6F8"/>
            <stop offset="1" stop-color="#FFE150"/>
        </linearGradient>
        <linearGradient id="paint1_linear_2089-29291" x1="472.857" y1="361.483" x2="643.15" y2="720.334" gradientUnits="userSpaceOnUse">
            <stop offset="0.0804872" stop-color="#FD7577"/>
            <stop offset="1" stop-color="#FFE14F"/>
        </linearGradient>
        <linearGradient id="paint2_linear_2089-29291" x1="638.379" y1="457.274" x2="678.396" y2="654.149" gradientUnits="userSpaceOnUse">
            <stop offset="0.0885664" stop-color="#1F2122" stop-opacity="0"/>
            <stop offset="0.512961" stop-color="#1F2122"/>
            <stop offset="0.936736" stop-color="#1F2122" stop-opacity="0"/>
        </linearGradient>
        <linearGradient id="paint3_linear_2089-29291" x1="816.777" y1="486.388" x2="459.158" y2="381.242" gradientUnits="userSpaceOnUse">
            <stop stop-color="#5B45A1"/>
            <stop offset="0.46298" stop-color="#A12D8E"/>
            <stop offset="0.934252" stop-color="#FF7676"/>
        </linearGradient>
        <linearGradient id="paint4_linear_2089-29291" x1="842.992" y1="437.546" x2="702.5" y2="241.441" gradientUnits="userSpaceOnUse">
            <stop stop-color="#5A45A1"/>
            <stop offset="1" stop-color="#F3F6F8"/>
        </linearGradient>
    </defs>
</svg>
